P3
2 3
255
255 255 255 0 255 0
100 100 100 0 255 255
255 0   255 0 0 100
