P3
3 2
255
0 0 0  255 0 0  0 0 0
255 0 255  0 0 100 20 20 20
