P3
4
4
255
255
108
0
241
223
112
99
103
242
74
236
74
247
227
94
120
245
232
236
71
241
241
44
98
237
126
240
101
234
118
238
101
96
114
49
239
57
235
255
86
114
234
237
223
93
71
247
245
